<svg id="Ebene_1" data-name="Ebene 1" xmlns="http://www.w3.org/2000/svg" viewBox="0 0 3000 3000"><defs><style>.cls-1{fill:#f7f7f7;}</style></defs><title>ocular-logo-white</title><g id="SCHWARZ"><path class="cls-1" d="M674.63,2062.64c0,65.88-40.67,133.24-129.61,133.24-80.56,0-128-63.09-128-132.75,0-74.08,50.95-133.73,130.06-133.73C628.22,1929.4,674.63,1993.64,674.63,2062.64Zm-227.19.49c0,52.69,35.52,105.75,98.62,105.75,66.1,0,98.12-48.61,98.12-105.72,0-57.6-36.94-106.75-99.61-106.75C479.46,1956.41,447.44,2006,447.44,2063.13Z"/><path class="cls-1" d="M1091.54,2113.39c-13.55,44.49-52.46,82.49-118,82.49-85.56,0-129-60.08-129-131.77,0-73.57,49-134.71,129.95-134.71,76.75,0,110,47.84,116.94,84.49h-29.41c-11-28.93-34.93-58-89-58-59.64,0-98.05,44.6-98.05,107.21,0,59.14,36.9,106.26,98.53,106.26,47.52,0,74.5-23.42,88.54-56Z"/><path class="cls-1" d="M1500.61,2115.14c0,24.72,2.31,55.41,2.81,80.13h-27.9c-1-7.06-4.31-35-4.32-56.45-12.62,33.5-37.23,57.06-93.68,57.06-54,0-95.36-28.32-95.36-101.53V1936.46h29.42v151.68c0,40.71,16.56,79.71,68.61,79.71,63,0,91-36.53,91-118.75V1936.46h29.42Z"/><path class="cls-1" d="M1718.8,2196.36V1815.19h29.42v381.17Z"/><path class="cls-1" d="M2209.09,2131c0,20-2,58.24-1,64.28h-28.33c-2-11,.46-39,.45-48-13.13,28.61-41.42,48.65-98.24,48.65-72.59,0-97.89-43.87-97.89-80.3,0-63.65,59-81.33,129.78-81.33h66.31v-16.46c0-31.55-13.52-62.51-76.52-62.51-56,0-69.53,26-75.52,53.9h-29.42c3.5-34.74,26.2-79.78,105.41-79.78,81.89,0,104.94,41.12,104.94,82.53Zm-28.89-72.42h-65.3c-67.52,0-100.93,14.05-100.93,55.45,0,30,21.51,55.44,70.51,55.44,79.93,0,95.72-49.79,95.72-96Z"/><path class="cls-1" d="M2444.16,2007.32c0-23.38,0-47.27-.51-70.65H2472c.53,6.8,1.54,33.35,1.54,62.11,17.58-42.92,57.25-69.4,104.81-69.37v31.13c-58.52-.53-104.81,42.15-104.81,120v115.89h-29.42Z"/><rect class="cls-1" x="1359" y="1244.91" width="279" height="53.44"/><rect class="cls-1" x="172.59" y="1244.91" width="136.21" height="53.44"/><rect class="cls-1" x="2683.42" y="1244.91" width="142.58" height="53.44"/><path class="cls-1" d="M816.63,1744.25c-126.24,0-244.93-49.16-334.19-138.43S344,1397.87,344,1271.63s49.16-244.92,138.43-334.19S690.39,799,816.63,799s244.92,49.16,334.19,138.42,138.43,208,138.43,334.19-49.17,244.93-138.43,334.19S942.87,1744.25,816.63,1744.25Zm0-884.16c-226.93,0-411.55,184.62-411.55,411.54s184.62,411.55,411.55,411.55,411.54-184.62,411.54-411.55S1043.55,860.09,816.63,860.09Z"/><path class="cls-1" d="M2183,1744.25c-126.24,0-244.92-49.16-334.19-138.43s-138.42-208-138.42-334.19,49.16-244.92,138.42-334.19S2056.77,799,2183,799a472,472,0,0,1,393.54,210.86l-50.82,33.86A411.11,411.11,0,0,0,2183,860.09c-226.92,0-411.54,184.62-411.54,411.54s184.62,411.55,411.54,411.55a411.1,411.1,0,0,0,342.72-183.66l50.82,33.87A472.05,472.05,0,0,1,2183,1744.25Z"/><path class="cls-1" d="M503.21,1271.63H465c0-188.2,153.11-341.31,341.31-341.31v38.17C639.2,968.49,503.21,1104.48,503.21,1271.63Z"/></g></svg>