<svg id="Ebene_1" data-name="Ebene 1" xmlns="http://www.w3.org/2000/svg" viewBox="0 0 3000 3000"><defs><style>.cls-1{fill:#f7f7f7;}</style></defs><title>OCULAR-SYMBOL-WHITE</title><g id="SCHWARZ"><rect class="cls-1" x="1348.46" y="1416.34" width="305.92" height="58.59"/><rect class="cls-1" x="47.59" y="1416.34" width="149.36" height="58.59"/><rect class="cls-1" x="2800.67" y="1416.34" width="156.33" height="58.59"/><path class="cls-1" d="M753.77,1963.85c-138.43,0-268.56-53.91-366.44-151.78s-151.78-228-151.78-366.44,53.9-268.55,151.78-366.43,228-151.78,366.44-151.78,268.55,53.9,366.43,151.78,151.78,228,151.78,366.43-53.9,268.56-151.78,366.44S892.19,1963.85,753.77,1963.85Zm0-969.47c-248.82,0-451.25,202.43-451.25,451.25S505,1896.88,753.77,1896.88,1205,1694.45,1205,1445.63,1002.59,994.38,753.77,994.38Z"/><path class="cls-1" d="M2252,1963.85c-138.42,0-268.56-53.91-366.43-151.79s-151.78-228-151.78-366.43,53.9-268.55,151.78-366.43,228-151.78,366.43-151.78a517.61,517.61,0,0,1,431.51,231.2l-55.73,37.14A450.76,450.76,0,0,0,2252,994.38c-248.82,0-451.25,202.43-451.25,451.25s202.43,451.25,451.25,451.25a450.78,450.78,0,0,0,375.78-201.37l55.73,37.13A517.62,517.62,0,0,1,2252,1963.85Z"/><path class="cls-1" d="M410.11,1445.63H368.26c0-206.35,167.88-374.24,374.23-374.24v41.86C559.22,1113.25,410.11,1262.35,410.11,1445.63Z"/></g></svg>