<svg xmlns="http://www.w3.org/2000/svg" viewBox="0 0 2557.41 1397"><defs><style>.cls-1{fill:#f7f7f7;}</style></defs><title>OCULAR-LOGO-WHITE</title><g id="white"><path class="cls-1" d="M484.48,1268c0,63.46-39.18,128.35-124.85,128.35-77.59,0-123.3-60.78-123.3-127.87,0-71.36,49.07-128.81,125.27-128.81C439.77,1139.68,484.48,1201.55,484.48,1268Zm-218.84.48c0,50.75,34.22,101.85,95,101.85,63.66,0,94.5-46.81,94.5-101.82,0-55.48-35.58-102.83-95.94-102.83C296.48,1165.69,265.64,1213.47,265.64,1268.49Z"/><path class="cls-1" d="M886,1316.9c-13,42.85-50.53,79.46-113.63,79.46-82.41,0-124.21-57.88-124.21-126.93,0-70.86,47.15-129.75,125.17-129.75,73.92,0,105.91,46.08,112.63,81.38H857.67c-10.56-27.86-33.64-55.85-85.72-55.85-57.44,0-94.43,43-94.43,103.26,0,57,35.54,102.35,94.9,102.35,45.77,0,71.75-22.56,85.28-53.92Z"/><path class="cls-1" d="M1280.05,1318.58c0,23.82,2.22,53.37,2.71,77.19h-26.87c-1-6.8-4.16-33.7-4.17-54.38-12.16,32.27-35.86,55-90.23,55-52,0-91.85-27.28-91.85-97.8V1146.48H1098v146.09c0,39.22,15.94,76.78,66.09,76.78,60.71,0,87.64-35.18,87.64-114.37v-108.5h28.34Z"/><path class="cls-1" d="M1490.21,1396.81V1029.67h28.33v367.14Z"/><path class="cls-1" d="M1962.45,1333.85c0,19.24-1.89,56.1-.93,61.92h-27.29c-1.94-10.59.44-37.57.43-46.28-12.65,27.56-39.89,46.87-94.62,46.87-69.92,0-94.29-42.26-94.29-77.35,0-61.31,56.86-78.34,125-78.34h63.88v-15.86c0-30.38-13-60.2-73.71-60.2-54,0-67,25-72.74,51.92h-28.34c3.37-33.47,25.24-76.85,101.53-76.85,78.88,0,101.08,39.61,101.08,79.49Zm-27.82-69.75h-62.9c-65,0-97.22,13.53-97.22,53.41,0,28.87,20.72,53.39,67.92,53.39,77,0,92.2-48,92.2-92.45Z"/><path class="cls-1" d="M2188.87,1214.73c0-22.52,0-45.53-.49-68h27.35c.5,6.56,1.47,32.13,1.47,59.82,16.94-41.34,55.15-66.84,101-66.81v30c-56.37-.51-101,40.6-101,115.58v111.62h-28.33Z"/><rect class="cls-1" x="1179.34" y="441.56" width="268.91" height="53.03"/><rect class="cls-1" y="441.56" width="131.28" height="53.03"/><rect class="cls-1" x="2415.92" y="441.56" width="141.49" height="53.03"/><path class="cls-1" d="M639.79,936.14c-125,0-242.57-48.69-331-137.09s-137.09-205.95-137.09-331,48.68-242.57,137.09-331S514.76,0,639.79,0s242.56,48.68,331,137.09,137.09,205.94,137.09,331-48.69,242.56-137.09,331S764.81,936.14,639.79,936.14Zm0-877.41c-225.72,0-409.35,183.63-409.35,409.35S414.07,877.43,639.79,877.43s409.35-183.64,409.35-409.35S865.5,58.73,639.79,58.73Z"/><path class="cls-1" d="M1987.81,936.14c-125,0-242.57-48.69-331-137.09s-137.1-205.95-137.1-331,48.69-242.57,137.1-331S1862.78,0,1987.81,0a467.49,467.49,0,0,1,389.74,208.83l-48.86,32.55A408.91,408.91,0,0,0,1987.81,58.73c-225.72,0-409.35,183.63-409.35,409.35s183.63,409.35,409.35,409.35a408.89,408.89,0,0,0,340.88-182.68l48.86,32.56A467.51,467.51,0,0,1,1987.81,936.14Z"/><path class="cls-1" d="M328.76,468.08H290.89c0-186.76,151.94-338.71,338.7-338.71v37.88C463.71,167.25,328.76,302.2,328.76,468.08Z"/></g></svg>