<svg xmlns="http://www.w3.org/2000/svg" viewBox="0 0 2557.41 936.14"><defs><style>.cls-1{fill:#f7f7f7;}</style></defs><title>OCULAR-SYMBOL-WHITE</title><g id="Illu_white" data-name="Illu white"><rect class="cls-1" x="1179.34" y="441.56" width="268.91" height="53.03"/><rect class="cls-1" y="441.56" width="131.28" height="53.03"/><rect class="cls-1" x="2415.92" y="441.56" width="141.49" height="53.03"/><path class="cls-1" d="M639.79,936.14c-125,0-242.57-48.69-331-137.09s-137.09-205.95-137.09-331,48.68-242.57,137.09-331S514.76,0,639.79,0s242.56,48.68,331,137.09,137.09,205.94,137.09,331-48.69,242.56-137.09,331S764.81,936.14,639.79,936.14Zm0-877.41c-225.72,0-409.35,183.63-409.35,409.35S414.07,877.43,639.79,877.43s409.35-183.64,409.35-409.35S865.5,58.73,639.79,58.73Z"/><path class="cls-1" d="M1987.81,936.14c-125,0-242.57-48.69-331-137.09s-137.1-205.95-137.1-331,48.69-242.57,137.1-331S1862.78,0,1987.81,0a467.49,467.49,0,0,1,389.74,208.83l-48.86,32.55A408.91,408.91,0,0,0,1987.81,58.73c-225.72,0-409.35,183.63-409.35,409.35s183.63,409.35,409.35,409.35a408.89,408.89,0,0,0,340.88-182.68l48.86,32.56A467.51,467.51,0,0,1,1987.81,936.14Z"/><path class="cls-1" d="M328.76,468.08H290.89c0-186.76,151.94-338.71,338.7-338.71v37.88C463.71,167.25,328.76,302.2,328.76,468.08Z"/></g></svg>